<svg xmlns="http://www.w3.org/2000/svg" viewBox="0 0 64 64" fill="none">
  <path d="M20 36h24l-2 10H22l-2-10Z" fill="#f97316" opacity="0.12"/>
  <path d="M18 26h28c2.2 0 4 1.8 4 4v2c0 5.5-4.5 10-10 10H24c-5.5 0-10-4.5-10-10v-2c0-2.2 1.8-4 4-4Z" stroke="#f97316" stroke-width="3" stroke-linejoin="round"/>
  <path d="M18 26v-2c0-1.1.9-2 2-2h24c1.1 0 2 .9 2 2v2" stroke="#f97316" stroke-width="3" stroke-linecap="round"/>
  <path d="M24 42v8M40 42v8" stroke="#f97316" stroke-width="3" stroke-linecap="round"/>
  <path d="M14 54c0-2.2 1.8-4 4-4h28c2.2 0 4 1.8 4 4v2H14v-2Z" stroke="#f97316" stroke-width="3" stroke-linejoin="round"/>
  <path d="M32 8l1.7 4.8L38 14.5l-4.3 1.7L32 21l-1.7-4.8L26 14.5l4.3-1.7L32 8Z" fill="#f97316"/>
  <path d="M48 10l1.1 3 2.9 1.1-2.9 1.1-1.1 3-1.1-3-2.9-1.1 2.9-1.1L48 10Z" fill="#f97316" opacity="0.9"/>
</svg>
